<svg width="599" height="290" viewBox="0 0 599 290" fill="none" xmlns="http://www.w3.org/2000/svg">
<path d="M532.279 168.691C532.401 185.772 531.258 201.429 529.122 215.277C528.972 216.317 528.803 217.357 528.625 218.369C527.51 225.115 526.152 231.402 524.615 237.211C524.343 238.204 524.072 239.188 523.8 240.153C517.888 260.823 509.483 274.793 500.516 279.955H124.036C124.036 279.955 91.9446 252.137 85.4983 212.391C85.3297 211.379 85.1798 210.367 85.0579 209.346C82.5563 189.567 86.5852 167.042 103.919 143.609C111.827 132.946 122.218 125.516 134.155 120.4C135.092 120.007 136.01 119.632 136.966 119.266C154.665 112.342 175.456 110.169 196.332 109.841C197.39 109.822 198.44 109.812 199.499 109.812C211.932 109.719 224.328 110.234 236.087 110.703C237.202 110.759 238.307 110.806 239.404 110.852C258.387 111.649 275.496 112.239 287.91 109.962H287.929C289.072 109.747 290.159 109.513 291.218 109.241H291.236C304.982 105.877 311.756 98.0723 306.884 81.3007C297.439 48.76 307.109 24.9049 328.153 11.7312C329.221 11.0566 330.336 10.4008 331.47 9.78237C343.378 3.33607 358.426 -0.046368 375.441 0.000480118C376.631 0.000480118 377.84 0.028589 379.058 0.0566979C393.525 0.49707 409.322 3.34544 425.728 8.78919C434.554 11.7125 442.781 15.3386 450.398 19.5174C451.335 20.0327 452.272 20.5574 453.172 21.1009C468.107 29.7303 480.681 40.6272 491.091 52.9389C491.803 53.754 492.477 54.5879 493.161 55.4312C520.211 88.7777 532.008 131.822 532.279 168.691Z" fill="#E4EBF7"/>
<path d="M524.615 237.221C524.343 238.214 524.072 239.198 523.8 240.163C518.234 238.167 512.378 235.618 506.391 232.376C478.779 217.376 443.624 183.973 432.971 109.925C428.38 78.0026 434.236 47.5982 450.398 19.5174C451.335 20.0327 452.272 20.5574 453.172 21.1009C438.986 45.7242 431.022 75.1636 435.96 109.485C446.435 182.221 480.737 214.977 507.684 229.641C513.475 232.798 519.181 235.29 524.615 237.221Z" fill="white"/>
<path d="M529.122 215.286C528.972 216.326 528.803 217.366 528.625 218.378C511.188 210.189 489.198 192.368 478.938 153.681C469.025 116.221 472.979 82.9684 491.081 52.9388C491.793 53.7539 492.468 54.5878 493.152 55.4311C475.94 84.5238 472.267 116.699 481.871 152.913C491.681 189.923 512.453 207.21 529.122 215.286Z" fill="white"/>
<path d="M364.507 63.236C365.969 112.389 360.375 144.152 346.358 166.236C331.676 189.379 307.193 203.368 266.95 211.585C259.455 213.122 252.043 213.89 244.772 213.89C222.126 213.89 200.791 206.516 182.099 192.087C160.362 175.297 143.712 150.008 134.164 120.409C135.101 120.016 136.019 119.641 136.975 119.276C146.326 148.378 162.638 173.245 183.954 189.707C207.912 208.222 236.415 214.752 266.351 208.643C341.186 193.333 364.301 158.01 361.49 63.3203C360.684 36.4389 365.378 15.2261 375.441 0.000427246C376.631 0.000427246 377.84 0.0285361 379.058 0.056645C368.592 14.8513 363.701 36.0266 364.507 63.236Z" fill="white"/>
<path d="M271.128 164.953C268.017 165.468 264.804 165.74 261.534 165.74C237.407 165.74 209.785 151.123 196.34 109.859C197.399 109.841 198.448 109.831 199.507 109.831C214.32 154.131 246.083 166.021 270.632 161.992C303.791 156.557 335.685 122.415 329.52 69.8416C326.868 47.289 326.746 28.0344 328.161 11.75C329.229 11.0754 330.344 10.4195 331.478 9.80109C329.829 26.3853 329.773 46.1459 332.518 69.4856C338.899 123.914 305.646 159.293 271.128 164.953Z" fill="white"/>
<path d="M291.227 109.25C290.065 114.544 288.032 119.95 284.546 124.485C279.918 130.547 273.415 134.145 265.217 135.148C264.233 135.27 263.268 135.326 262.322 135.326C257.234 135.326 252.577 133.593 248.445 130.116C242.983 125.525 239.001 118.404 236.105 110.703C237.22 110.759 238.326 110.806 239.422 110.852C242.111 117.674 245.672 123.839 250.394 127.811C254.62 131.353 259.492 132.824 264.851 132.159C272.216 131.25 278.025 128.055 282.157 122.668C285.024 118.929 286.833 114.441 287.938 109.962H287.957C289.081 109.766 290.168 109.522 291.227 109.25Z" fill="white"/>
<path d="M174.068 279.965H170.78C157.25 248.979 137.742 228.319 112.726 218.528C103.646 214.968 94.4267 213.113 85.5068 212.4C85.3381 211.389 85.1882 210.377 85.0664 209.355C94.4641 210.03 104.209 211.969 113.822 215.727C139.944 225.949 160.192 247.527 174.068 279.965Z" fill="white"/>
<path d="M108.763 186.568L99.4401 196.182L95.5517 190.466L94.2587 188.555C90.1079 189.595 83.9802 181.481 81.5253 177.152C79.0799 172.804 88.8899 166.105 88.8899 166.105C87.2877 161.308 80.8601 158.291 80.6821 156.96C80.504 155.649 82.0969 154.234 87.9435 156.96C93.7995 159.706 98.8779 169.403 98.8779 169.403C99.9179 166.583 95.2987 158.947 96.1513 158.085C96.9946 157.241 101.52 158.281 105.006 165.627C108.51 172.992 106.42 181.668 106.42 181.668L106.467 181.743L108.763 186.568Z" fill="#98B2D8"/>
<path d="M88.5339 165.252C88.5339 165.252 95.4581 173.179 94.7179 176.29C93.9777 179.401 90.4828 175.793 90.4828 175.793C90.4828 175.793 93.6872 179.494 92.6472 180.722C91.6071 181.949 87.7469 178.838 87.7469 178.838C87.7469 178.838 92.3661 184.591 87.7469 183.739C83.1276 182.886 77.3185 174.172 81.7784 173.301C81.7784 173.301 81.235 166.958 85.292 169.122C85.292 169.122 83.4743 163.828 88.5339 165.252Z" fill="#B1C3E8"/>
<path d="M172.711 280.021C172.711 280.021 180.506 257.234 176.412 234.775C176.412 234.775 176.393 234.728 176.383 234.625C176.383 234.578 176.365 234.522 176.355 234.447C176.234 233.857 176.112 233.266 175.99 232.686C175.99 232.686 171.464 236.64 165.215 240.565C157.719 245.288 147.712 249.982 140.029 247.78C125.937 243.751 105.324 216.354 95.7578 194.72C95.7578 194.72 100.536 187.552 110.093 185.35C110.093 185.35 129.207 210.817 146.063 216.851C146.063 216.851 155.114 206.029 162.151 190.194C166.648 180.084 173.395 173.685 181.902 170.246C186.727 168.269 192.134 167.257 197.999 167.079L212.766 160.183C212.766 160.183 215.164 160.202 218.893 160.68C225.818 161.589 237.333 164.119 246.637 171.211C260.972 182.136 281.595 280.04 281.595 280.04H172.711V280.021Z" fill="#B7CAE5"/>
<path d="M176.383 234.625C176.262 233.979 176.13 233.332 175.99 232.676C175.99 232.676 171.464 236.63 165.215 240.556L169.572 203.256C174.013 220.336 176.14 233.098 176.383 234.625Z" fill="#97B3D1"/>
<path d="M218.894 160.661C216.617 175.147 202.113 188.527 191.647 188.349C183.223 188.199 181.987 176.131 181.902 170.228C186.728 168.251 192.134 167.239 197.999 167.061L212.766 160.165C212.775 160.165 215.174 160.183 218.894 160.661Z" fill="#CED9EA"/>
<path d="M193.829 265.217C193.829 265.217 227.091 230.596 228.544 194.205L238.354 224.881L234.578 256.822L193.829 265.217Z" fill="#97B3D1"/>
<path d="M192.865 280.012H155.621C155.621 280.012 155.715 274.924 161.468 273.219C167.221 271.523 170.894 264.355 188.152 265.301L192.865 280.012Z" fill="#98B2D8"/>
<path d="M230.971 245.784C230.971 245.784 213.422 255.875 185.791 263.043C185.791 263.043 181.959 272.282 188.686 280.021H242.149L230.971 245.784Z" fill="#B6C5DD"/>
<path d="M165.637 139.992C165.637 139.992 157.691 129.029 158.675 121.646C159.659 114.263 166.489 115.996 166.489 115.996C166.489 115.996 166.171 98.0535 182.774 102.645C182.774 102.645 182.408 97.1634 186.034 97.3133C189.661 97.4539 195.348 105.793 195.348 105.793C195.348 105.793 196.763 99.6183 199.218 101.071C201.672 102.532 202.431 108.904 207.557 111.977C212.682 115.05 215.858 119.023 211.829 131.466C207.8 143.908 210.826 144.789 209.384 151.179C208.016 157.251 206.929 160.942 203.162 161.28C199.396 161.617 184.976 146.41 184.976 146.41L165.637 139.992Z" fill="#5D7CA0"/>
<path d="M212.776 160.165C212.776 160.165 203.528 182.596 193.812 180.909C188.987 180.066 187.909 177.124 187.872 173.713C187.825 169.263 189.558 164.044 186.935 161.851L198.581 145.305L201.148 141.65C201.139 141.65 204.278 150.739 212.776 160.165Z" fill="#98B2D8"/>
<path d="M187.862 173.713C187.815 169.263 189.548 164.044 186.925 161.851L198.571 145.305C199.564 146.466 200.277 148.537 200.567 151.779C202.104 168.869 193.071 172.842 187.862 173.713Z" fill="#799CBF"/>
<path d="M164.503 131.269C164.503 131.269 167.651 160.165 179.447 166.677C189.698 172.327 202.141 155.227 201.897 146.776C201.897 146.776 206.366 143.365 205.617 137.846C204.867 132.328 199.03 134.155 198.337 143.056C198.337 143.056 193.586 142.719 192.715 131.597C189.735 134.061 186.522 133.302 183.139 130.304C183.139 130.304 181.462 136.497 172.833 129.264C172.823 129.245 169.563 133.667 164.503 131.269Z" fill="#98B2D8"/>
<path d="M442.657 243.236C442.657 243.236 457.883 268.637 463.148 280.958H409.47C409.47 280.958 406.415 266.107 401.037 251.847L442.657 243.236Z" fill="#5D7CA0"/>
<path d="M421.726 248.895C418.784 258.63 414.305 266.941 407.662 273.247L409.48 280.949L344.529 280.152L351.763 235.693L421.726 248.895Z" fill="#799CBF"/>
<path d="M523.62 110.29C523.62 110.29 525.766 96.8261 530.048 92.0476C534.32 87.2691 546.014 80.2044 547.4 82.7154C548.787 85.2265 537.094 93.1157 537.094 93.1157C537.094 93.1157 542.378 91.8602 546.904 99.6557C551.429 107.451 536.841 113.485 536.841 113.485L533.945 120.025L522.374 112.736L523.62 110.29Z" fill="#799CBF"/>
<path d="M538.574 93.3687C538.574 93.3687 532.053 99.993 533.009 101.886C533.964 103.778 537.553 100.808 537.553 100.808C537.553 100.808 534.62 105.268 536.897 106.421C539.174 107.573 542.688 103.713 542.688 103.713C542.688 103.713 539.755 107.77 541.441 108.519C543.128 109.26 552.142 102.907 550.53 101.417C548.918 99.9274 548.038 101.145 548.038 101.145C548.038 101.145 549.921 97.9692 548.038 96.9479C545.986 95.8423 544.955 97.8286 544.955 97.8286C544.955 97.8286 546.492 95.3925 545.245 94.4462C543.999 93.4999 541.357 94.7179 541.357 94.7179C541.357 94.7179 542.238 90.6702 538.574 93.3687Z" fill="#98B2D8"/>
<path d="M532.522 93.2093C530.545 92.6472 526.516 96.7604 526.516 96.7604C524.933 98.7936 524.614 102.851 524.548 104.725C524.342 109.953 522.365 112.726 522.365 112.726L528.24 116.427C532.784 110.571 531.294 103.076 530.564 100.415C532.784 97.1071 533.702 93.5467 532.522 93.2093Z" fill="#98B2D8"/>
<path d="M536.326 121.403C536.326 121.403 516.715 173.638 485.542 178.267C471.6 180.338 461.069 180.544 453.704 180.15C444.925 179.7 440.606 178.37 440.287 178.276C440.268 178.276 440.268 178.258 440.268 178.258C440.268 178.258 431.714 194.186 437.251 217.076C442.77 239.947 444.794 244.735 444.794 244.735C444.794 244.735 402.771 275.636 368.6 247.499L337.765 199.555L328.104 184.526C328.104 184.526 336.978 155.396 361.994 136.46L362.013 136.441C371.439 129.292 383.179 123.586 397.59 121.478C404.982 120.363 413.068 120.194 421.913 121.253C421.913 121.253 428.706 123.174 439.744 127.212C445.684 129.386 452.87 132.178 460.881 135.616C483.771 145.426 490.058 148.35 490.058 148.35C490.058 148.35 514.438 124.298 520.735 109.709C520.735 109.709 533.309 110.984 536.326 121.403Z" fill="#B7CAE5"/>
<path d="M378.963 145.258C378.85 156.96 376.349 168.307 375.243 177.114L394.629 173.189L424.789 203.003C424.789 203.003 428.612 211.735 420.836 213.244C414.736 214.424 386.252 218.388 386.252 218.388C379.684 227.326 376.723 240.987 373.444 254.255L344.529 204.005L378.963 145.258Z" fill="#97B3D1"/>
<path d="M421.913 148.069C408.412 144.639 401.3 132.496 397.59 121.487C404.982 120.372 413.068 120.203 421.913 121.262C421.913 121.262 428.706 123.183 439.744 127.221C441.046 136.853 440.578 152.791 421.913 148.069Z" fill="#CED9EA"/>
<path d="M457.367 158.75C457.367 158.75 454.472 170.097 453.704 180.16C444.924 179.71 440.605 178.379 440.286 178.286C440.268 178.286 440.268 178.267 440.268 178.267C440.268 178.267 447.941 165.159 457.367 158.75Z" fill="#97B3D1"/>
<path d="M423.664 207.978L389.981 212.869C388.987 213.009 388.06 212.325 387.91 211.323L380.47 160.062C380.33 159.068 381.014 158.141 382.016 157.991L415.7 153.1C416.693 152.959 417.621 153.643 417.762 154.646L425.201 205.907C425.351 206.91 424.658 207.828 423.664 207.978Z" fill="#F2F4F9"/>
<path d="M399.154 175.344L404.308 173.329C404.308 173.329 409.208 159.752 415.308 168.298C415.308 168.298 419.524 165.787 419.393 164.4C419.271 163.013 419.205 161.008 419.205 161.008C419.205 161.008 427.741 162.854 425.83 174.753C423.918 186.653 416.629 185.144 409.461 185.275L400.532 188.798L399.154 175.344Z" fill="#98B2D8"/>
<path d="M402.48 191.937C402.48 191.937 362.312 218.519 344.969 205.701C342.327 203.743 339.928 201.672 337.773 199.564L328.113 184.535C328.113 184.535 336.986 155.405 362.003 136.469L362.022 136.45C370.314 132.721 378.981 134.08 379.421 141.763C380.48 160.062 364.833 171.315 362.893 179.616L398.891 172.327C398.891 172.327 404.747 178.539 402.48 191.937Z" fill="#C1CFE5"/>
<path d="M449.695 93.4156C449.695 93.4156 455.438 81.1507 453.087 74.0861C450.735 67.0214 444.354 70.0103 444.354 70.0103C444.354 70.0103 441.29 52.3298 425.849 59.9567C425.849 59.9567 425.175 54.5129 421.642 55.3281C418.11 56.1526 414.09 65.4098 414.09 65.4098C414.09 65.4098 411.542 59.61 409.405 61.5026C407.269 63.3953 407.719 69.8041 403.259 73.7862C398.799 77.7683 396.429 82.2657 402.725 93.7342C409.021 105.203 406.22 106.636 408.834 112.642C411.317 118.348 413.078 121.768 416.845 121.393C420.612 121.018 431.911 103.366 431.911 103.366L449.695 93.4156Z" fill="#5D7CA0"/>
<path d="M407.194 122.096C407.194 122.096 416.077 143.974 430.028 140.395C434.779 139.177 434.807 134.08 434.207 130.716C433.411 126.34 430.731 121.534 432.895 118.892L418.344 104.828L415.14 101.726C415.13 101.726 413.762 111.237 407.194 122.096Z" fill="#98B2D8"/>
<path d="M434.208 130.716C433.411 126.34 430.731 121.534 432.896 118.892L418.345 104.828C417.586 106.158 417.277 108.323 417.605 111.555C419.3 128.636 428.923 130.838 434.208 130.716Z" fill="#799CBF"/>
<path d="M449.161 84.6363C449.161 84.6363 451.504 113.616 441.141 122.218C432.137 129.695 416.696 115.247 415.356 106.889C415.356 106.889 410.324 104.378 410.024 98.8125C409.725 93.2469 415.796 93.9497 418.157 102.56C418.157 102.56 422.758 101.333 421.53 90.2487C424.922 92.1132 427.939 90.764 430.694 87.1754C430.694 87.1754 433.505 92.9377 440.616 84.2146C440.616 84.2052 444.645 87.9344 449.161 84.6363Z" fill="#98B2D8"/>
<path d="M375.488 263.999V264.018C375.048 265.798 374.429 267.428 373.633 268.89C366.343 282.213 334.787 280.021 334.787 280.021H262.744C232.929 280.021 220.983 279.281 218.125 269.977C217.957 269.48 217.835 268.946 217.732 268.393C215.708 257.571 225.771 222.379 244.379 198.233C253.899 185.894 263.737 179.391 272.507 175.99C280.883 172.748 288.276 172.326 293.467 172.326C302.611 172.326 309.985 173.001 316.253 174.472C333.063 178.407 341.861 187.918 355.044 204.764C371.159 225.359 379.096 249.542 375.488 263.999Z" fill="url(#paint0_linear)"/>
<path opacity="0.22" d="M248.783 255.454C256.597 243.161 259.062 226.099 261.235 208.793L268.028 243.995H326.87L337.682 208.793C337.429 225.246 339.687 241.381 347.492 256.822C347.483 256.812 309.011 300.353 248.783 255.454Z" fill="#1F395E"/>
<path d="M266.651 280.021H262.744C232.93 280.021 220.983 279.281 218.126 269.977C216.57 262.659 218.547 254.967 227.467 252.671C241.437 249.082 265.761 263.231 265.761 263.231L266.651 280.021Z" fill="url(#paint1_linear)"/>
<path d="M375.488 263.999C375.488 263.999 375.507 263.999 375.488 264.018C375.048 265.798 374.43 267.428 373.633 268.89C366.344 282.213 334.787 280.021 334.787 280.021H313.405L316.122 261.919C316.122 261.919 354.023 244.369 367.599 249.851C374.242 252.512 376.275 258.068 375.488 263.999Z" fill="url(#paint2_linear)"/>
<path d="M316.244 174.472C315.607 182.933 312.112 198.355 295.06 198.355C277.089 198.355 273.285 183.158 272.507 175.999C280.883 172.757 288.276 172.336 293.467 172.336C302.602 172.326 309.985 173.001 316.244 174.472Z" fill="#1F395E"/>
<path d="M331.77 280.012H262.744C261.076 280.012 259.727 278.662 259.727 276.995C259.727 275.327 261.076 273.978 262.744 273.978H331.77C333.437 273.978 334.787 275.327 334.787 276.995C334.787 278.662 333.437 280.012 331.77 280.012Z" fill="white"/>
<path d="M340.127 228.123L339.874 229.687V229.706L332.725 273.987H262.369L255.295 228.095C254.948 225.846 256.7 223.813 258.958 223.813H336.464C338.75 223.803 340.493 225.855 340.127 228.123Z" fill="url(#paint3_linear)"/>
<path d="M339.874 229.706L332.725 273.987H262.753L286.467 271.513C310.81 268.993 331.554 252.727 339.874 229.706Z" fill="#3150BC"/>
<path d="M294.769 191.937H294.3C291.583 191.937 289.334 191.375 287.507 190.56C283.076 188.564 280.386 183.936 280.49 179.082C280.508 178.585 280.508 178.098 280.508 177.62C280.527 173.591 280.265 170.247 280.265 170.247V168.438L305.609 167.304C305.703 170.959 306.125 174.2 306.621 176.796C306.64 176.843 306.64 176.871 306.65 176.918C308.111 184.535 302.527 191.74 294.769 191.937Z" fill="#FEB19E"/>
<path d="M306.63 176.796C296.071 189.201 285.221 181.958 280.517 177.63C280.536 173.601 280.273 170.256 280.273 170.256V168.447L305.618 167.314C305.712 170.949 306.134 174.2 306.63 176.796Z" fill="#FF856A"/>
<path d="M272.516 156.117C272.516 156.117 280.377 178.267 293.485 178.267C306.593 178.267 312.046 154.412 312.046 154.412V133.667H271.522L272.516 156.117Z" fill="#FEB19E"/>
<path d="M268.3 143.618C268.3 143.618 264.44 144.321 265.096 148.753C265.751 153.184 269.78 158.563 273.05 155.733L268.3 143.618Z" fill="#FEB19E"/>
<path d="M315.101 141.763C315.101 141.763 319.017 141.941 318.971 146.42C318.924 150.898 315.663 156.773 312.037 154.412L315.101 141.763Z" fill="#FEB19E"/>
<path d="M315.101 141.763C315.101 141.763 313.742 149.511 312.037 154.412C312.037 154.412 308.936 153.784 307.924 145.614C307.924 145.614 301.215 146.925 296.999 140.582C296.999 140.582 295.996 146.869 289.522 142.409C285.202 145.932 280.096 146.307 274.306 143.918C274.306 143.918 275.28 152.163 272.516 156.117C272.516 156.117 271.513 152.866 268.3 143.618C268.3 143.618 266.922 143.665 266.042 144.92C266.042 144.92 259.099 131.334 262.369 124.804C265.639 118.273 270.042 120.784 270.042 120.784C270.042 120.784 268.412 111.855 278.091 108.585C287.77 105.315 287.77 100.911 289.278 101.792C290.787 102.673 291.415 105.943 291.415 105.943C291.415 105.943 308.139 104.181 312.665 122.162C312.665 122.162 324.742 122.546 317.575 142.793C317.565 142.784 317.097 141.95 315.101 141.763Z" fill="url(#paint4_linear)"/>
<path opacity="0.6" d="M250.488 160.586H187.299C185.247 160.586 183.579 162.254 183.579 164.306V202.019C183.579 204.071 185.247 205.739 187.299 205.739H230.886L242.252 215.811C243.114 216.57 244.425 215.699 244.051 214.612L240.977 205.739H250.488C252.54 205.739 254.207 204.071 254.207 202.019V164.306C254.217 162.254 252.549 160.586 250.488 160.586Z" fill="#9ABCED"/>
<path d="M206.899 170.678H192.339C191.795 170.678 191.346 170.237 191.346 169.684C191.346 169.141 191.786 168.691 192.339 168.691H206.899C207.452 168.691 207.892 169.132 207.892 169.684C207.892 170.237 207.452 170.678 206.899 170.678Z" fill="#9ABCED"/>
<path d="M242.804 179.279H200.622C200.069 179.279 199.629 178.838 199.629 178.286C199.629 177.733 200.069 177.292 200.622 177.292H242.804C243.348 177.292 243.797 177.733 243.797 178.286C243.788 178.838 243.348 179.279 242.804 179.279Z" fill="#9ABCED"/>
<path d="M242.804 185.407H192.349C191.805 185.407 191.355 184.966 191.355 184.413C191.355 183.861 191.796 183.42 192.349 183.42H242.804C243.348 183.42 243.797 183.861 243.797 184.413C243.788 184.957 243.348 185.407 242.804 185.407Z" fill="#9ABCED"/>
<path d="M242.804 191.525H192.349C191.805 191.525 191.355 191.085 191.355 190.532C191.355 189.979 191.796 189.539 192.349 189.539H242.804C243.348 189.539 243.797 189.979 243.797 190.532C243.788 191.075 243.348 191.525 242.804 191.525Z" fill="#9ABCED"/>
<path d="M242.804 197.643H192.349C191.805 197.643 191.355 197.203 191.355 196.65C191.355 196.097 191.796 195.657 192.349 195.657H242.804C243.348 195.657 243.797 196.097 243.797 196.65C243.788 197.203 243.348 197.643 242.804 197.643Z" fill="#9ABCED"/>
<path d="M530.639 289.822H71.9776C71.0781 289.822 70.3379 289.091 70.3379 288.182V281.651C70.3379 280.752 71.0687 280.012 71.9776 280.012H530.639C531.539 280.012 532.279 280.742 532.279 281.651V288.182C532.27 289.091 531.539 289.822 530.639 289.822Z" fill="#C1C8D3"/>
<path d="M436.775 255.829H417.164V272.806C417.164 276.76 420.368 279.974 424.332 279.974H429.616C433.57 279.974 436.784 276.77 436.784 272.806V255.829H436.775Z" fill="url(#paint5_linear)"/>
<path d="M423.386 255.829V250.591C423.386 249.729 424.079 249.036 424.941 249.036H426.918C427.78 249.036 428.473 248.342 428.473 247.48V245.503C428.473 244.641 427.78 243.948 426.918 243.948H420.556C416.18 243.948 412.639 240.406 412.639 236.031C412.639 231.655 416.18 228.113 420.556 228.113H428.998C429.86 228.113 430.553 227.42 430.553 226.558V225.855C430.553 221.32 434.226 217.647 438.761 217.647C443.296 217.647 446.969 221.32 446.969 225.855C446.969 230.746 442.996 234.719 438.105 234.719H423.254C422.392 234.719 421.699 235.412 421.699 236.274C421.699 237.136 422.392 237.83 423.254 237.83H431.369C434.367 237.83 436.794 240.256 436.794 243.255V246.646C436.794 249.645 434.367 252.071 431.369 252.071C430.507 252.071 429.813 252.765 429.813 253.627V255.847H423.386V255.829Z" fill="url(#paint6_linear)"/>
<path opacity="0.6" d="M409.265 228.057H357.779C355.802 228.057 354.2 226.455 354.2 224.478V159.415C354.2 157.438 355.802 155.836 357.779 155.836H409.265C411.242 155.836 412.845 157.438 412.845 159.415V224.478C412.854 226.455 411.252 228.057 409.265 228.057Z" fill="#9ABCED"/>
<path d="M412.535 225.668H361.049C358.66 225.668 356.711 223.719 356.711 221.33V156.267C356.711 153.878 358.66 151.929 361.049 151.929H412.535C414.924 151.929 416.873 153.878 416.873 156.267V221.33C416.873 223.719 414.924 225.668 412.535 225.668ZM361.049 153.437C359.484 153.437 358.219 154.702 358.219 156.267V221.33C358.219 222.894 359.484 224.159 361.049 224.159H412.535C414.1 224.159 415.365 222.894 415.365 221.33V156.267C415.365 154.702 414.1 153.437 412.535 153.437H361.049Z" fill="#4F7EB7"/>
<path opacity="0.71" d="M374.438 178.932H362.998V165.224H374.438V178.932ZM364.507 177.424H372.93V166.733H364.507V177.424Z" fill="#7CA6D8"/>
<path d="M371.561 174.688L368.16 170.893L369.285 169.881L371.346 172.186C372.395 170.809 374.953 168.045 379.816 166.04L380.388 167.436C374.325 169.928 372.105 173.732 372.086 173.769L371.561 174.688Z" fill="#EA9BA1"/>
<path d="M403.624 170.368H385.878C385.26 170.368 384.754 169.862 384.754 169.244C384.754 168.626 385.26 168.12 385.878 168.12H403.624C404.243 168.12 404.749 168.626 404.749 169.244C404.739 169.862 404.243 170.368 403.624 170.368Z" fill="#9ABCED"/>
<path d="M403.624 175.803H385.878C385.26 175.803 384.754 175.297 384.754 174.678C384.754 174.06 385.26 173.554 385.878 173.554H403.624C404.243 173.554 404.749 174.06 404.749 174.678C404.739 175.306 404.243 175.803 403.624 175.803Z" fill="#9ABCED"/>
<path opacity="0.71" d="M374.438 199.929H362.998V186.222H374.438V199.929ZM364.507 198.421H372.93V187.73H364.507V198.421Z" fill="#7CA6D8"/>
<path d="M371.561 195.685L368.16 191.89L369.285 190.878L371.346 193.183C372.395 191.806 374.953 189.042 379.816 187.037L380.388 188.433C374.325 190.925 372.105 194.729 372.086 194.767L371.561 195.685Z" fill="#EA9BA1"/>
<path d="M403.624 191.366H385.878C385.26 191.366 384.754 190.86 384.754 190.241C384.754 189.623 385.26 189.117 385.878 189.117H403.624C404.243 189.117 404.749 189.623 404.749 190.241C404.739 190.86 404.243 191.366 403.624 191.366Z" fill="#9ABCED"/>
<path d="M403.624 196.8H385.878C385.26 196.8 384.754 196.294 384.754 195.676C384.754 195.057 385.26 194.551 385.878 194.551H403.624C404.243 194.551 404.749 195.057 404.749 195.676C404.739 196.303 404.243 196.8 403.624 196.8Z" fill="#9ABCED"/>
<path opacity="0.71" d="M374.438 220.927H362.998V207.219H374.438V220.927ZM364.507 219.418H372.93V208.728H364.507V219.418Z" fill="#7CA6D8"/>
<path d="M371.561 216.682L368.16 212.888L369.285 211.876L371.346 214.181C372.395 212.803 374.953 210.039 379.816 208.034L380.388 209.43C374.325 211.923 372.105 215.727 372.086 215.764L371.561 216.682Z" fill="#EA9BA1"/>
<path d="M403.624 212.354H385.878C385.26 212.354 384.754 211.848 384.754 211.229C384.754 210.611 385.26 210.105 385.878 210.105H403.624C404.243 210.105 404.749 210.611 404.749 211.229C404.739 211.857 404.243 212.354 403.624 212.354Z" fill="#9ABCED"/>
<path d="M403.624 217.797H385.878C385.26 217.797 384.754 217.291 384.754 216.673C384.754 216.055 385.26 215.549 385.878 215.549H403.624C404.243 215.549 404.749 216.055 404.749 216.673C404.739 217.301 404.243 217.797 403.624 217.797Z" fill="#9ABCED"/>
<path opacity="0.6" d="M590.137 128.561H538.65C536.674 128.561 535.071 126.959 535.071 124.982V59.9098C535.071 57.9328 536.674 56.3306 538.65 56.3306H590.137C592.114 56.3306 593.716 57.9328 593.716 59.9098V124.972C593.725 126.949 592.114 128.561 590.137 128.561Z" fill="#9ABCED"/>
<path d="M594.662 125.197H543.176C540.787 125.197 538.838 123.248 538.838 120.859V55.7965C538.838 53.4073 540.787 51.4584 543.176 51.4584H594.662C597.051 51.4584 599 53.4073 599 55.7965V120.859C599 123.248 597.051 125.197 594.662 125.197ZM543.176 52.9669C541.611 52.9669 540.346 54.2318 540.346 55.7965V120.859C540.346 122.415 541.611 123.689 543.176 123.689H594.662C596.227 123.689 597.492 122.424 597.492 120.859V55.7965C597.492 54.2412 596.227 52.9669 594.662 52.9669H543.176Z" fill="#4F7EB7"/>
<g opacity="0.5">
<path opacity="0.5" d="M559.929 77.7249C561.082 72.8611 558.074 67.9833 553.21 66.8301C548.347 65.6769 543.469 68.6849 542.316 73.5487C541.162 78.4125 544.17 83.2903 549.034 84.4435C553.898 85.5967 558.776 82.5886 559.929 77.7249Z" fill="#7CA6D8"/>
<path opacity="0.5" d="M553.52 74.4327L559.554 63.6857C565.082 65.0724 567.724 70.2819 565.082 75.632L553.52 74.4327Z" fill="#E83F54"/>
<g opacity="0.5">
<path opacity="0.5" d="M547.861 94.4837C547.861 95.9453 546.68 97.1259 545.218 97.1259C543.757 97.1259 542.576 95.9453 542.576 94.4837C542.576 93.022 543.757 91.8414 545.218 91.8414C546.68 91.8414 547.861 93.022 547.861 94.4837Z" fill="#9ABCED"/>
<path opacity="0.5" d="M547.861 106.177C547.861 107.639 546.68 108.819 545.218 108.819C543.757 108.819 542.576 107.639 542.576 106.177C542.576 104.715 543.757 103.535 545.218 103.535C546.68 103.535 547.861 104.715 547.861 106.177Z" fill="#9ABCED"/>
<path opacity="0.5" d="M582.312 97.1259H561.193C559.731 97.1259 558.551 95.9453 558.551 94.4837C558.551 93.022 559.731 91.8414 561.193 91.8414H582.312C583.774 91.8414 584.954 93.022 584.954 94.4837C584.954 95.9453 583.774 97.1259 582.312 97.1259Z" fill="#9ABCED"/>
<path opacity="0.5" d="M582.312 108.819H561.193C559.731 108.819 558.551 107.639 558.551 106.177C558.551 104.715 559.731 103.535 561.193 103.535H582.312C583.774 103.535 584.954 104.715 584.954 106.177C584.954 107.639 583.774 108.819 582.312 108.819Z" fill="#9ABCED"/>
<path opacity="0.5" d="M547.861 118.058C547.861 119.519 546.68 120.7 545.218 120.7C543.757 120.7 542.576 119.519 542.576 118.058C542.576 116.596 543.757 115.415 545.218 115.415C546.68 115.415 547.861 116.596 547.861 118.058Z" fill="#9ABCED"/>
<path opacity="0.5" d="M582.312 120.7H561.193C559.731 120.7 558.551 119.519 558.551 118.058C558.551 116.596 559.731 115.415 561.193 115.415H582.312C583.774 115.415 584.954 116.596 584.954 118.058C584.954 119.519 583.774 120.7 582.312 120.7Z" fill="#9ABCED"/>
</g>
</g>
<path opacity="0.6" d="M149.783 107.358H98.297C96.32 107.358 94.7178 105.755 94.7178 103.778V26.6383C94.7178 24.6613 96.32 23.0591 98.297 23.0591H149.783C151.76 23.0591 153.362 24.6613 153.362 26.6383V103.769C153.362 105.755 151.76 107.358 149.783 107.358Z" fill="#9ABCED"/>
<path d="M146.513 104.847H95.0266C92.6374 104.847 90.6885 102.898 90.6885 100.508V23.3776C90.6885 20.9884 92.6374 19.0395 95.0266 19.0395H146.513C148.902 19.0395 150.851 20.9884 150.851 23.3776V100.508C150.851 102.898 148.902 104.847 146.513 104.847ZM95.0266 20.548C93.4713 20.548 92.197 21.8129 92.197 23.3776V100.508C92.197 102.064 93.4619 103.338 95.0266 103.338H146.513C148.068 103.338 149.342 102.073 149.342 100.508V23.3776C149.342 21.8223 148.077 20.548 146.513 20.548H95.0266Z" fill="#4F7EB7"/>
<path d="M121.271 57.7547L120.53 58.4106C120.062 58.8229 119.35 58.7854 118.938 58.3169L111.386 49.8093L113.812 47.6543L121.364 56.1619C121.786 56.6304 121.739 57.3425 121.271 57.7547Z" fill="#7CA6D8"/>
<path d="M108.752 34.1902C103.974 34.1902 100.076 38.0692 100.076 42.8665C100.076 47.6637 103.965 51.5427 108.752 51.5427C113.55 51.5427 117.429 47.6637 117.429 42.8665C117.429 38.0692 113.55 34.1902 108.752 34.1902ZM108.752 48.7787C105.492 48.7787 102.84 46.1365 102.84 42.8665C102.84 39.5965 105.492 36.9542 108.752 36.9542C112.022 36.9542 114.665 39.5965 114.665 42.8665C114.665 46.1365 112.022 48.7787 108.752 48.7787Z" fill="#7CA6D8"/>
<path d="M143.898 38.9687H130.19C129.319 38.9687 128.616 38.266 128.616 37.3946C128.616 36.5232 129.319 35.8205 130.19 35.8205H143.898C144.769 35.8205 145.472 36.5232 145.472 37.3946C145.472 38.2566 144.769 38.9687 143.898 38.9687Z" fill="#9ABCED"/>
<path d="M143.898 47.139H130.19C129.319 47.139 128.616 46.4363 128.616 45.5649C128.616 44.6936 129.319 43.9908 130.19 43.9908H143.898C144.769 43.9908 145.472 44.6936 145.472 45.5649C145.472 46.4363 144.769 47.139 143.898 47.139Z" fill="#9ABCED"/>
<path d="M143.898 54.6816H130.19C129.319 54.6816 128.616 53.9789 128.616 53.1075C128.616 52.2361 129.319 51.5334 130.19 51.5334H143.898C144.769 51.5334 145.472 52.2361 145.472 53.1075C145.472 53.9789 144.769 54.6816 143.898 54.6816Z" fill="#9ABCED"/>
<path d="M126.836 75.6789H105.717C104.724 75.6789 103.928 74.8731 103.928 73.8893C103.928 72.8961 104.734 72.0997 105.717 72.0997H126.836C127.83 72.0997 128.626 72.9055 128.626 73.8893C128.626 74.8731 127.82 75.6789 126.836 75.6789Z" fill="#9ABCED"/>
<path d="M126.836 86.8943H105.717C104.724 86.8943 103.928 86.0885 103.928 85.1047C103.928 84.1115 104.734 83.3151 105.717 83.3151H126.836C127.83 83.3151 128.626 84.1209 128.626 85.1047C128.626 86.0979 127.82 86.8943 126.836 86.8943Z" fill="#9ABCED"/>
<path d="M126.836 98.1192H105.717C104.724 98.1192 103.928 97.3134 103.928 96.3296C103.928 95.3364 104.734 94.54 105.717 94.54H126.836C127.83 94.54 128.626 95.3458 128.626 96.3296C128.626 97.3134 127.82 98.1192 126.836 98.1192Z" fill="#9ABCED"/>
<path d="M143.383 73.8892C143.383 75.4821 142.099 76.7657 140.506 76.7657C138.914 76.7657 137.63 75.4821 137.63 73.8892C137.63 72.2964 138.914 71.0128 140.506 71.0128C142.099 71.0128 143.383 72.2964 143.383 73.8892Z" fill="#9ABCED"/>
<path d="M143.383 85.1047C143.383 86.6976 142.099 87.9812 140.506 87.9812C138.914 87.9812 137.63 86.6976 137.63 85.1047C137.63 83.5119 138.914 82.2283 140.506 82.2283C142.099 82.2283 143.383 83.5213 143.383 85.1047Z" fill="#9ABCED"/>
<path d="M143.383 96.3295C143.383 97.9224 142.099 99.206 140.506 99.206C138.914 99.206 137.63 97.9224 137.63 96.3295C137.63 94.7367 138.914 93.4531 140.506 93.4531C142.099 93.4531 143.383 94.7367 143.383 96.3295Z" fill="#9ABCED"/>
<path opacity="0.6" d="M401.347 108.538H307.051C303.613 108.538 300.83 105.755 300.83 102.317V39.6995C300.83 36.2609 303.613 33.4781 307.051 33.4781H401.347C404.786 33.4781 407.569 36.2609 407.569 39.6995V102.317C407.569 105.755 404.786 108.538 401.347 108.538Z" fill="#9ABCED"/>
<path d="M404.617 105.84H310.321C306.47 105.84 303.341 102.71 303.341 98.8593V36.2421C303.341 32.3912 306.47 29.2618 310.321 29.2618H404.617C408.468 29.2618 411.597 32.3912 411.597 36.2421V98.8593C411.597 102.71 408.459 105.84 404.617 105.84ZM310.321 30.7797C307.304 30.7797 304.849 33.2345 304.849 36.2515V98.8687C304.849 101.886 307.304 104.341 310.321 104.341H404.617C407.634 104.341 410.089 101.886 410.089 98.8687V36.2421C410.089 33.2251 407.634 30.7703 404.617 30.7703H310.321V30.7797Z" fill="#4F7EB7"/>
<path opacity="0.5" d="M366.456 48.7599H314.211C312.702 48.7599 311.475 47.5325 311.475 46.024C311.475 44.5155 312.702 43.2881 314.211 43.2881H366.456C367.964 43.2881 369.191 44.5155 369.191 46.024C369.191 47.5325 367.964 48.7599 366.456 48.7599Z" fill="#9ABCED"/>
<path opacity="0.71" d="M367.262 88.9275H313.415C312.346 88.9275 311.484 88.0655 311.484 86.9974V60.3033C311.484 59.2352 312.346 58.3732 313.415 58.3732H367.262C368.33 58.3732 369.192 59.2352 369.192 60.3033V86.988C369.192 88.0561 368.33 88.9275 367.262 88.9275Z" fill="#7CA6D8"/>
<path opacity="0.5" d="M394.18 48.7599H378.72C377.212 48.7599 375.984 47.5325 375.984 46.024C375.984 44.5155 377.212 43.2881 378.72 43.2881H394.19C395.698 43.2881 396.925 44.5155 396.925 46.024C396.916 47.5325 395.689 48.7599 394.18 48.7599Z" fill="#9ABCED"/>
<path opacity="0.5" d="M395.221 63.2735H378.974C378.037 63.2735 377.278 62.5146 377.278 61.5776C377.278 60.6407 378.037 59.8817 378.974 59.8817H395.221C396.158 59.8817 396.917 60.6407 396.917 61.5776C396.917 62.5146 396.158 63.2735 395.221 63.2735Z" fill="#9ABCED"/>
<path opacity="0.5" d="M395.221 70.9473H378.974C378.037 70.9473 377.278 70.1883 377.278 69.2514C377.278 68.3144 378.037 67.5555 378.974 67.5555H395.221C396.158 67.5555 396.917 68.3144 396.917 69.2514C396.917 70.1883 396.158 70.9473 395.221 70.9473Z" fill="#9ABCED"/>
<path opacity="0.5" d="M395.221 78.6116H378.974C378.037 78.6116 377.278 77.8526 377.278 76.9157C377.278 75.9787 378.037 75.2198 378.974 75.2198H395.221C396.158 75.2198 396.917 75.9787 396.917 76.9157C396.917 77.8526 396.158 78.6116 395.221 78.6116Z" fill="#9ABCED"/>
<path opacity="0.5" d="M395.221 86.2853H378.974C378.037 86.2853 377.278 85.5264 377.278 84.5894C377.278 83.6524 378.037 82.8935 378.974 82.8935H395.221C396.158 82.8935 396.917 83.6524 396.917 84.5894C396.917 85.5264 396.158 86.2853 395.221 86.2853Z" fill="#9ABCED"/>
<path opacity="0.5" d="M384.183 100.874H324.02C322.774 100.874 321.753 99.8619 321.753 98.6064C321.753 97.3602 322.765 96.3389 324.02 96.3389H384.183C385.429 96.3389 386.45 97.3508 386.45 98.6064C386.45 99.8525 385.438 100.874 384.183 100.874Z" fill="#9ABCED"/>
<path opacity="0.6" d="M98.709 185.36H9.44457C6.67116 185.36 4.41309 183.111 4.41309 180.328V126.265C4.41309 123.492 6.6618 121.234 9.44457 121.234H98.709C101.482 121.234 103.74 123.483 103.74 126.265V180.328C103.74 183.102 101.492 185.36 98.709 185.36Z" fill="#9ABCED"/>
<path d="M95.0548 182.399H5.78106C2.59539 182.399 0 179.804 0 176.618V122.555C0 119.369 2.59539 116.774 5.78106 116.774H95.0455C98.2311 116.774 100.827 119.369 100.827 122.555V176.618C100.836 179.804 98.2405 182.399 95.0548 182.399ZM5.78106 118.283C3.41991 118.283 1.50851 120.203 1.50851 122.555V176.618C1.50851 178.979 3.42928 180.89 5.78106 180.89H95.0455C97.4066 180.89 99.318 178.97 99.318 176.618V122.555C99.318 120.194 97.3972 118.283 95.0455 118.283H5.78106Z" fill="#4F7EB7"/>
<g opacity="0.5">
<path opacity="0.5" d="M40.1586 150.833C37.8536 153.156 34.6492 154.59 31.1075 154.59C24.0428 154.59 18.3086 148.856 18.3086 141.8C18.3086 134.726 24.0428 128.992 31.1075 128.992C32.5411 128.992 33.9278 129.236 35.2114 129.667L31.1075 141.8L40.1586 150.833Z" fill="#7CA6D8"/>
<path opacity="0.5" d="M45.6022 140.807C45.6022 143.805 44.3841 146.523 42.4165 148.481L34.7334 140.807L38.2189 130.51C42.5008 131.953 45.6022 136.019 45.6022 140.807Z" fill="#E83F54"/>
<path opacity="0.5" d="M88.8425 155.349H59.4219V130.51C59.4219 130.098 59.7592 129.751 60.1808 129.751C60.5931 129.751 60.9398 130.088 60.9398 130.51V153.84H88.8519C89.2735 153.84 89.6108 154.178 89.6108 154.599C89.5921 155.011 89.2548 155.349 88.8425 155.349Z" fill="#9ABCED"/>
<path opacity="0.5" d="M69.3541 142.55H65.5781V153.84H69.3541V142.55Z" fill="#9ABCED"/>
<path opacity="0.5" d="M77.15 136.825H73.374V153.84H77.15V136.825Z" fill="#E83F54"/>
<path opacity="0.5" d="M84.8228 145.333H81.0469V153.84H84.8228V145.333Z" fill="#9ABCED"/>
<path opacity="0.5" d="M36.7291 166.873H19.0018C18.271 166.873 17.6807 166.283 17.6807 165.552C17.6807 164.821 18.271 164.231 19.0018 164.231H36.7291C37.4599 164.231 38.0502 164.821 38.0502 165.552C38.0502 166.283 37.4599 166.873 36.7291 166.873Z" fill="#9ABCED"/>
<path opacity="0.5" d="M63.7604 166.873H46.033C45.3022 166.873 44.7119 166.283 44.7119 165.552C44.7119 164.821 45.3022 164.231 46.033 164.231H63.7604C64.4912 164.231 65.0815 164.821 65.0815 165.552C65.0815 166.283 64.4912 166.873 63.7604 166.873Z" fill="#9ABCED"/>
<path opacity="0.5" d="M89.152 166.873H71.4246C70.6938 166.873 70.1035 166.283 70.1035 165.552C70.1035 164.821 70.6938 164.231 71.4246 164.231H89.152C89.8828 164.231 90.4731 164.821 90.4731 165.552C90.4731 166.283 89.8828 166.873 89.152 166.873Z" fill="#9ABCED"/>
<path opacity="0.5" d="M48.357 176.299H30.6297C29.8989 176.299 29.3086 175.709 29.3086 174.978C29.3086 174.247 29.8989 173.657 30.6297 173.657H48.357C49.0879 173.657 49.6782 174.247 49.6782 174.978C49.6782 175.709 49.0879 176.299 48.357 176.299Z" fill="#9ABCED"/>
<path opacity="0.5" d="M73.7574 176.299H56.0301C55.2993 176.299 54.709 175.709 54.709 174.978C54.709 174.247 55.2993 173.657 56.0301 173.657H73.7574C74.4883 173.657 75.0785 174.247 75.0785 174.978C75.0785 175.709 74.4883 176.299 73.7574 176.299Z" fill="#9ABCED"/>
</g>
<defs>
<linearGradient id="paint0_linear" x1="296.915" y1="274.091" x2="296.915" y2="183.314" gradientUnits="userSpaceOnUse">
<stop stop-color="#1F3A65"/>
<stop offset="1" stop-color="#294A7A"/>
</linearGradient>
<linearGradient id="paint1_linear" x1="242.149" y1="281.132" x2="242.149" y2="256.729" gradientUnits="userSpaceOnUse">
<stop stop-color="#1F3A65"/>
<stop offset="1" stop-color="#294A7A"/>
</linearGradient>
<linearGradient id="paint2_linear" x1="344.529" y1="281.132" x2="344.529" y2="256.729" gradientUnits="userSpaceOnUse">
<stop stop-color="#1F3A65"/>
<stop offset="1" stop-color="#294A7A"/>
</linearGradient>
<linearGradient id="paint3_linear" x1="314.969" y1="271.961" x2="283.285" y2="221.669" gradientUnits="userSpaceOnUse">
<stop stop-color="#3855E1"/>
<stop offset="1" stop-color="#5C7EF7"/>
</linearGradient>
<linearGradient id="paint4_linear" x1="291.139" y1="148.954" x2="290.126" y2="109.456" gradientUnits="userSpaceOnUse">
<stop stop-color="#3F2323"/>
<stop offset="1" stop-color="#5E3434"/>
</linearGradient>
<linearGradient id="paint5_linear" x1="417.163" y1="267.896" x2="436.777" y2="267.896" gradientUnits="userSpaceOnUse">
<stop stop-color="#1F3A65"/>
<stop offset="1" stop-color="#294A7A"/>
</linearGradient>
<linearGradient id="paint6_linear" x1="445.174" y1="200.527" x2="420.28" y2="249.939" gradientUnits="userSpaceOnUse">
<stop stop-color="#E2E8F7"/>
<stop offset="1" stop-color="white"/>
</linearGradient>
</defs>
</svg>
